<?xml version="1.0" encoding="utf-8"?>
<!-- Generator: Adobe Illustrator 24.0.1, SVG Export Plug-In . SVG Version: 6.00 Build 0)  -->
<svg version="1.1" id="Livello_1" xmlns="http://www.w3.org/2000/svg" xmlns:xlink="http://www.w3.org/1999/xlink" x="0px" y="0px"
	 viewBox="0 0 154 96.2" style="enable-background:new 0 0 154 96.2;" xml:space="preserve">
<style type="text/css">
	.st0{fill:url(#SVGID_1_);}
	.st1{fill:url(#SVGID_2_);}
	.st2{fill:url(#SVGID_3_);}
	.st3{fill:url(#SVGID_4_);}
	.st4{fill:url(#SVGID_5_);}
	.st5{fill:url(#SVGID_6_);}
	.st6{fill:url(#SVGID_7_);}
	.st7{fill:url(#SVGID_8_);}
	.st8{fill:url(#SVGID_9_);}
	.st9{fill:url(#SVGID_10_);}
</style>
<g>
	<linearGradient id="SVGID_1_" gradientUnits="userSpaceOnUse" x1="-6.1984" y1="72.1295" x2="108.801" y2="71.0667">
		<stop  offset="0.3895" style="stop-color:#16BBB2"/>
		<stop  offset="0.4332" style="stop-color:#1EB4B2"/>
		<stop  offset="0.6868" style="stop-color:#4A90B1"/>
		<stop  offset="0.8842" style="stop-color:#6579B0"/>
		<stop  offset="1" style="stop-color:#6F71B0"/>
	</linearGradient>
	<path class="st0" d="M28.6,80.6c-0.3-0.2-0.6-0.3-1-0.3c-0.1,0-0.3,0-0.4,0c-0.1,0-0.2,0-0.3,0.1c-0.3,0.1-0.6,0.1-1,0.1
		c-0.5,0-0.9-0.1-0.9-1.1V67.7h2.4c1,0,1.8-0.7,1.8-1.8c0-1-0.7-1.7-1.8-1.7H25v-2.6c0-1.1-0.9-2-2-2c-1.1,0-2,0.9-2,2v2.6v3.5v11.8
		c0,3,1.4,4.6,4.3,4.6c2.4,0,3.9-0.9,3.9-2.3C29.1,81.3,28.9,80.9,28.6,80.6z"/>
	<linearGradient id="SVGID_2_" gradientUnits="userSpaceOnUse" x1="-5.2723" y1="74.4951" x2="104.2953" y2="73.4825">
		<stop  offset="0.3895" style="stop-color:#16BBB2"/>
		<stop  offset="0.4332" style="stop-color:#1EB4B2"/>
		<stop  offset="0.6868" style="stop-color:#4A90B1"/>
		<stop  offset="0.8842" style="stop-color:#6579B0"/>
		<stop  offset="1" style="stop-color:#6F71B0"/>
	</linearGradient>
	<path class="st1" d="M47.5,64.1c-1.1,0-2,0.9-2,2v0.4C44.2,64.9,42,64,39.6,64c-2.3,0-4.5,0.9-6.3,2.5c-1.4,1.3-3.1,3.7-3.1,7.6
		c0,6.6,4.8,10.1,9.4,10.1c2.4,0,4.6-1,5.9-2.7v0.6c0,1.1,0.9,2,2,2c1.1,0,2-0.9,2-2v-16C49.5,65,48.6,64.1,47.5,64.1z M40.1,80.5
		c-2.3,0-5.8-1.7-5.8-6.5c0-4.2,2.9-6.5,5.8-6.5c3.9,0,5.6,3.4,5.6,6.5C45.7,77.3,43.7,80.5,40.1,80.5z"/>
	<linearGradient id="SVGID_3_" gradientUnits="userSpaceOnUse" x1="-10.1715" y1="72.5749" x2="104.8278" y2="71.5121">
		<stop  offset="0.3895" style="stop-color:#16BBB2"/>
		<stop  offset="0.4332" style="stop-color:#1EB4B2"/>
		<stop  offset="0.6868" style="stop-color:#4A90B1"/>
		<stop  offset="0.8842" style="stop-color:#6579B0"/>
		<stop  offset="1" style="stop-color:#6F71B0"/>
	</linearGradient>
	<path class="st2" d="M71.6,67.7c1,0,1.8-0.7,1.8-1.8c0-1-0.7-1.7-1.8-1.7h-2.4v-2.6c0-1.1-0.9-2-2-2c-1.1,0-2,0.9-2,2v2.6v3.5v11.8
		c0,3,1.4,4.6,4.3,4.6c2.4,0,3.9-0.9,3.9-2.3c0-0.5-0.2-1-0.6-1.3c-0.3-0.2-0.6-0.3-1-0.3c-0.1,0-0.3,0-0.4,0c-0.1,0-0.2,0-0.3,0.1
		c-0.3,0.1-0.6,0.1-1,0.1c-0.5,0-0.9-0.1-0.9-1.1V67.7H71.6z"/>
	<linearGradient id="SVGID_4_" gradientUnits="userSpaceOnUse" x1="-7.9476" y1="75.1719" x2="101.5315" y2="74.16">
		<stop  offset="0.3895" style="stop-color:#16BBB2"/>
		<stop  offset="0.4332" style="stop-color:#1EB4B2"/>
		<stop  offset="0.6868" style="stop-color:#4A90B1"/>
		<stop  offset="0.8842" style="stop-color:#6579B0"/>
		<stop  offset="1" style="stop-color:#6F71B0"/>
	</linearGradient>
	<path class="st3" d="M112.1,64c-4.1,0-9.9,3.1-9.9,10.1c0,7,5.8,10.1,9.9,10.1c2.4,0,4.8-0.9,6.6-2.5c1.5-1.3,3.3-3.7,3.3-7.6
		C122,67.1,116.3,64,112.1,64z M112.1,80.5c-2.9,0-5.9-2.3-5.9-6.4c0-4.2,3-6.5,5.9-6.5c3.8,0,5.9,3.3,5.9,6.5
		C118,77.2,116,80.5,112.1,80.5z"/>
	<linearGradient id="SVGID_5_" gradientUnits="userSpaceOnUse" x1="-4.1563" y1="73.9885" x2="105.7382" y2="72.9729">
		<stop  offset="0.3895" style="stop-color:#16BBB2"/>
		<stop  offset="0.4332" style="stop-color:#1EB4B2"/>
		<stop  offset="0.6868" style="stop-color:#4A90B1"/>
		<stop  offset="0.8842" style="stop-color:#6579B0"/>
		<stop  offset="1" style="stop-color:#6F71B0"/>
	</linearGradient>
	<path class="st4" d="M15.8,68.8l-4.9-4.9c-0.2-0.2-0.6-0.4-0.9-0.4c-0.3,0-0.7,0.1-0.9,0.4l-7.7,7.7c-0.8,0.8-0.8,2-0.2,2.8
		c0.4,0.4,0.9,0.7,1.5,0.7c0,0,0.1,0,0.1,0c0.5,0,1.1-0.2,1.4-0.6L9.8,69c0.1-0.1,0.1-0.1,0.2-0.1c0.1,0,0.1,0,0.2,0.1l2.7,2.7
		c0.6,0.6,1,1.2,1.3,1.8c0.3,0.6,0.4,1.2,0.4,1.8c0,0.6-0.1,1.2-0.4,1.7c-0.2,0.6-0.6,1.1-1.1,1.6c-0.5,0.5-1,0.9-1.6,1.1
		c-0.6,0.2-1.1,0.4-1.7,0.4c-0.6,0-1.2-0.1-1.8-0.4c-0.6-0.3-1.2-0.7-1.8-1.3c-0.4-0.4-0.9-0.6-1.4-0.6c0,0-0.1,0-0.1,0
		c-0.6,0-1.1,0.3-1.5,0.7c-0.7,0.8-0.6,2,0.2,2.8c0.9,0.9,1.9,1.6,3,2.1c1.1,0.5,2.3,0.7,3.4,0.7h0c1.1,0,2.2-0.2,3.3-0.7
		c1.1-0.4,2-1.1,2.9-2c0.8-0.8,1.5-1.8,2-2.9c0.5-1.1,0.7-2.2,0.7-3.3c0-1.1-0.2-2.3-0.7-3.4C17.5,70.8,16.8,69.8,15.8,68.8z"/>
	<linearGradient id="SVGID_6_" gradientUnits="userSpaceOnUse" x1="-10.1255" y1="73.2235" x2="100.0309" y2="72.2055">
		<stop  offset="0.3895" style="stop-color:#16BBB2"/>
		<stop  offset="0.4332" style="stop-color:#1EB4B2"/>
		<stop  offset="0.6868" style="stop-color:#4A90B1"/>
		<stop  offset="0.8842" style="stop-color:#6579B0"/>
		<stop  offset="1" style="stop-color:#6F71B0"/>
	</linearGradient>
	<path class="st5" d="M152.3,80.9l-7.4-7.8l5.9-5.9c0.3-0.3,0.6-0.8,0.6-1.3c0-1-0.8-1.9-1.9-1.9c-0.5,0-1.1,0.2-1.4,0.6l-8.2,8.3
		V61.6c0-1.1-0.9-2-2-2c-1.1,0-2,0.9-2,2V82c0,1.1,0.9,2,2,2c1.1,0,2-0.9,2-2v-4l2.3-2.3l7.4,7.8c0.3,0.4,0.8,0.6,1.4,0.6
		c1,0,1.8-0.8,1.8-1.8C152.8,81.7,152.7,81.2,152.3,80.9z"/>
	<linearGradient id="SVGID_7_" gradientUnits="userSpaceOnUse" x1="-8.4049" y1="74.7517" x2="105.3596" y2="73.7002">
		<stop  offset="0.3895" style="stop-color:#16BBB2"/>
		<stop  offset="0.4332" style="stop-color:#1EB4B2"/>
		<stop  offset="0.6868" style="stop-color:#4A90B1"/>
		<stop  offset="0.8842" style="stop-color:#6579B0"/>
		<stop  offset="1" style="stop-color:#6F71B0"/>
	</linearGradient>
	<path class="st6" d="M60.8,64.2H58h-0.7c-2.8,0-4.1,1.6-4.1,4.6v13.3c0,1.1,0.9,2,2,2c1.1,0,2-0.9,2-2V68.8c0-1,0.4-1.1,0.9-1.1
		h2.7c0.7,0,1.3-0.4,1.6-1c0.1-0.2,0.2-0.5,0.2-0.8C62.5,64.9,61.8,64.2,60.8,64.2z"/>
	<linearGradient id="SVGID_8_" gradientUnits="userSpaceOnUse" x1="-13.9676" y1="75.461" x2="99.7962" y2="74.4095">
		<stop  offset="0.3895" style="stop-color:#16BBB2"/>
		<stop  offset="0.4332" style="stop-color:#1EB4B2"/>
		<stop  offset="0.6868" style="stop-color:#4A90B1"/>
		<stop  offset="0.8842" style="stop-color:#6579B0"/>
		<stop  offset="1" style="stop-color:#6F71B0"/>
	</linearGradient>
	<path class="st7" d="M132,64.2h-2.7h-0.7c-2.8,0-4.1,1.6-4.1,4.6v13.3c0,1.1,0.9,2,2,2c1.1,0,2-0.9,2-2V68.8c0-1,0.4-1.1,0.9-1.1
		h2.7c0.7,0,1.3-0.4,1.6-1c0.1-0.2,0.2-0.5,0.2-0.8C133.7,64.9,133,64.2,132,64.2z"/>
	<linearGradient id="SVGID_9_" gradientUnits="userSpaceOnUse" x1="-6.3644" y1="74.6286" x2="102.3066" y2="73.6243">
		<stop  offset="0.3895" style="stop-color:#16BBB2"/>
		<stop  offset="0.4332" style="stop-color:#1EB4B2"/>
		<stop  offset="0.6868" style="stop-color:#4A90B1"/>
		<stop  offset="0.8842" style="stop-color:#6579B0"/>
		<stop  offset="1" style="stop-color:#6F71B0"/>
	</linearGradient>
	<path class="st8" d="M99.6,63.7c-0.2-0.1-0.4-0.1-0.6-0.1c-0.9,0-1.8,0.7-2.1,1.8l-2.7,11.8l-4.8-10c-0.2-0.4-0.6-0.6-0.9-0.6
		c-0.4,0-0.7,0.2-0.9,0.6l-4.8,9.2l-2.5-10.9c-0.3-1.1-1.1-1.8-2.1-1.8c-0.2,0-0.4,0-0.6,0.1c-1.1,0.4-1.7,1.6-1.4,2.9l3.6,15.7
		c0.3,1.1,1.1,1.7,2,1.7c0.5,0,1.1-0.2,1.5-0.7l5.2-10.6l5.2,10.6c0.4,0.5,1,0.7,1.5,0.7c0.9,0,1.8-0.6,2-1.7l3.6-15.7
		C101.4,65.3,100.7,64,99.6,63.7z"/>
	<linearGradient id="SVGID_10_" gradientUnits="userSpaceOnUse" x1="96.2275" y1="-0.7992" x2="70.0237" y2="38.6289">
		<stop  offset="0.3895" style="stop-color:#16BBB2"/>
		<stop  offset="0.4332" style="stop-color:#1EB4B2"/>
		<stop  offset="0.6868" style="stop-color:#4A90B1"/>
		<stop  offset="0.8842" style="stop-color:#6579B0"/>
		<stop  offset="1" style="stop-color:#6F71B0"/>
	</linearGradient>
	<path class="st9" d="M59.9,23.3c0.7,0.6,1.5,1,2.4,1c0,0,0,0,0,0c0.9,0,1.9-0.4,2.6-1.1c0.1-0.1,0.2-0.2,0.2-0.3l11.5-11.5l8.1,8.1
		c1.5,1.5,2.7,3.2,3.4,4.8c0.7,1.7,1.1,3.3,1.1,4.9c0,1.6-0.3,3.2-1,4.8c-0.7,1.6-1.7,3-3,4.3c-1.3,1.3-2.8,2.3-4.3,3
		c-1.6,0.7-3.1,1-4.8,1c0,0,0,0,0,0c-1.6,0-3.2-0.4-4.9-1.1c0,0,0,0,0,0l0,0c-0.7-0.3-1.4-0.7-2.1-1.2l7.3-7.3l2.3,2.3
		c0.1,0.1,0.3,0.2,0.5,0.2c0.4,0,0.7-0.3,0.7-0.7c0-2.7,0-7.7,0-9.6c0-0.4-0.3-0.7-0.7-0.7h-9.6c-0.6,0-1,0.8-0.5,1.2l2.3,2.3
		l-10,10c-0.7,0.7-1,1.6-1,2.5c0,0,0,0,0,0c0,0.9,0.3,1.8,1,2.5c2.1,2.1,4.5,3.8,7,4.9v0c2.5,1.1,5.1,1.7,7.7,1.7c0,0,0,0,0,0
		c2.6,0,5.1-0.5,7.5-1.5c2.4-1,4.6-2.5,6.6-4.5c1.9-1.9,3.4-4.1,4.5-6.5c1-2.4,1.6-5,1.6-7.5c0-2.6-0.6-5.2-1.6-7.7
		c-1.1-2.5-2.7-4.9-4.9-7L79,4c-0.7-0.7-1.6-1-2.5-1c-0.9,0-1.8,0.3-2.5,1l-14,14c-0.1,0.1-0.3,0.3-0.4,0.4
		C58.4,19.8,58.5,22,59.9,23.3z"/>
</g>
</svg>
