<?xml version="1.0" encoding="utf-8"?>
<!-- Generator: Adobe Illustrator 24.0.1, SVG Export Plug-In . SVG Version: 6.00 Build 0)  -->
<svg version="1.1" id="Livello_1" xmlns="http://www.w3.org/2000/svg" xmlns:xlink="http://www.w3.org/1999/xlink" x="0px" y="0px"
	 viewBox="0 0 154 81.9" style="enable-background:new 0 0 154 81.9;" xml:space="preserve">
<style type="text/css">
	.st0{fill:url(#SVGID_1_);}
	.st1{fill:url(#SVGID_2_);}
	.st2{fill:url(#SVGID_3_);}
	.st3{fill:url(#SVGID_4_);}
	.st4{fill:url(#SVGID_5_);}
	.st5{fill:url(#SVGID_6_);}
	.st6{fill:url(#SVGID_7_);}
	.st7{fill:url(#SVGID_8_);}
	.st8{fill:url(#SVGID_9_);}
	.st9{fill:url(#SVGID_10_);}
</style>
<g>
	<linearGradient id="SVGID_1_" gradientUnits="userSpaceOnUse" x1="-5.5783" y1="66.0216" x2="108.7472" y2="64.965">
		<stop  offset="0.3895" style="stop-color:#16BBB2"/>
		<stop  offset="0.4332" style="stop-color:#1EB4B2"/>
		<stop  offset="0.6868" style="stop-color:#4A90B1"/>
		<stop  offset="0.8842" style="stop-color:#6579B0"/>
		<stop  offset="1" style="stop-color:#6F71B0"/>
	</linearGradient>
	<path class="st0" d="M29,73.9c-0.3-0.2-0.6-0.3-1-0.3c-0.1,0-0.3,0-0.4,0c-0.1,0-0.2,0-0.3,0.1c-0.3,0.1-0.6,0.1-1,0.1
		c-0.5,0-0.9-0.1-0.9-1v-11h2.4c1,0,1.8-0.7,1.8-1.7c0-0.9-0.7-1.6-1.8-1.6h-2.4v-2.4c0-1-0.9-1.9-2-1.9c-1.1,0-2,0.9-2,1.9v2.4v3.3
		v11.1c0,2.9,1.4,4.3,4.2,4.3c2.4,0,3.9-0.8,3.9-2.1C29.5,74.6,29.3,74.2,29,73.9z"/>
	<linearGradient id="SVGID_2_" gradientUnits="userSpaceOnUse" x1="-4.6761" y1="68.2548" x2="104.3186" y2="67.2474">
		<stop  offset="0.3895" style="stop-color:#16BBB2"/>
		<stop  offset="0.4332" style="stop-color:#1EB4B2"/>
		<stop  offset="0.6868" style="stop-color:#4A90B1"/>
		<stop  offset="0.8842" style="stop-color:#6579B0"/>
		<stop  offset="1" style="stop-color:#6F71B0"/>
	</linearGradient>
	<path class="st1" d="M47.8,58.4c-1.1,0-2,0.9-2,1.9v0.4c-1.4-1.5-3.5-2.4-5.9-2.4c-2.2,0-4.5,0.9-6.2,2.4c-1.4,1.2-3.1,3.5-3.1,7.1
		c0,6.2,4.8,9.5,9.3,9.5c2.4,0,4.6-1,5.9-2.5v0.6c0,1,0.9,1.9,2,1.9c1.1,0,2-0.9,2-1.9v-15C49.8,59.3,49,58.4,47.8,58.4z M40.4,73.9
		c-2.3,0-5.8-1.6-5.8-6.1c0-4,2.9-6.1,5.8-6.1c3.8,0,5.6,3.2,5.6,6.1C46,70.8,44.1,73.9,40.4,73.9z"/>
	<linearGradient id="SVGID_3_" gradientUnits="userSpaceOnUse" x1="-9.491" y1="66.4644" x2="104.8345" y2="65.4078">
		<stop  offset="0.3895" style="stop-color:#16BBB2"/>
		<stop  offset="0.4332" style="stop-color:#1EB4B2"/>
		<stop  offset="0.6868" style="stop-color:#4A90B1"/>
		<stop  offset="0.8842" style="stop-color:#6579B0"/>
		<stop  offset="1" style="stop-color:#6F71B0"/>
	</linearGradient>
	<path class="st2" d="M71.8,61.8c1,0,1.8-0.7,1.8-1.7c0-0.9-0.7-1.6-1.8-1.6h-2.4v-2.4c0-1-0.9-1.9-2-1.9c-1.1,0-2,0.9-2,1.9v2.4
		v3.3v11.1c0,2.9,1.4,4.3,4.2,4.3c2.4,0,3.9-0.8,3.9-2.1c0-0.5-0.2-0.9-0.6-1.2c-0.3-0.2-0.6-0.3-1-0.3c-0.1,0-0.3,0-0.4,0
		c-0.1,0-0.2,0-0.3,0.1c-0.3,0.1-0.6,0.1-1,0.1c-0.5,0-0.9-0.1-0.9-1v-11H71.8z"/>
	<linearGradient id="SVGID_4_" gradientUnits="userSpaceOnUse" x1="-7.3449" y1="68.9272" x2="101.5843" y2="67.9204">
		<stop  offset="0.3895" style="stop-color:#16BBB2"/>
		<stop  offset="0.4332" style="stop-color:#1EB4B2"/>
		<stop  offset="0.6868" style="stop-color:#4A90B1"/>
		<stop  offset="0.8842" style="stop-color:#6579B0"/>
		<stop  offset="1" style="stop-color:#6F71B0"/>
	</linearGradient>
	<path class="st3" d="M112.1,58.3c-4.1,0-9.8,3-9.8,9.5c0,6.5,5.7,9.5,9.8,9.5c2.4,0,4.7-0.9,6.6-2.3c1.5-1.2,3.3-3.5,3.3-7.1
		C122,61.3,116.2,58.3,112.1,58.3z M112.1,73.9c-2.8,0-5.9-2.1-5.9-6c0-4,3-6.1,5.9-6.1c3.8,0,5.9,3.1,5.9,6.1
		C118,70.8,116,73.9,112.1,73.9z"/>
	<linearGradient id="SVGID_5_" gradientUnits="userSpaceOnUse" x1="-3.574" y1="67.761" x2="105.7757" y2="66.7504">
		<stop  offset="0.3895" style="stop-color:#16BBB2"/>
		<stop  offset="0.4332" style="stop-color:#1EB4B2"/>
		<stop  offset="0.6868" style="stop-color:#4A90B1"/>
		<stop  offset="0.8842" style="stop-color:#6579B0"/>
		<stop  offset="1" style="stop-color:#6F71B0"/>
	</linearGradient>
	<path class="st4" d="M16.3,62.9l-4.9-4.6c-0.2-0.2-0.6-0.4-0.9-0.4s-0.7,0.1-0.9,0.4L2,65.5c-0.8,0.7-0.8,1.9-0.2,2.6
		c0.4,0.4,0.9,0.7,1.5,0.7c0,0,0.1,0,0.1,0c0.5,0,1.1-0.2,1.4-0.6l5.5-5.2c0.1-0.1,0.1-0.1,0.2-0.1c0.1,0,0.1,0,0.2,0.1l2.7,2.6
		c0.6,0.5,1,1.1,1.3,1.7c0.3,0.6,0.4,1.1,0.4,1.7c0,0.6-0.1,1.1-0.4,1.6c-0.2,0.5-0.6,1-1.1,1.5c-0.5,0.5-1,0.8-1.6,1
		c-0.5,0.2-1.1,0.3-1.7,0.3c-0.6,0-1.2-0.1-1.8-0.4c-0.6-0.3-1.2-0.7-1.8-1.2c-0.4-0.4-0.9-0.6-1.4-0.6c0,0-0.1,0-0.1,0
		c-0.6,0-1.1,0.3-1.5,0.7c-0.7,0.8-0.6,1.9,0.2,2.6c0.9,0.9,1.9,1.5,3,2c1.1,0.5,2.3,0.7,3.4,0.7h0c1.1,0,2.2-0.2,3.3-0.6
		c1-0.4,2-1,2.9-1.8c0.8-0.8,1.5-1.7,1.9-2.7c0.5-1,0.7-2.1,0.7-3.1c0-1.1-0.2-2.1-0.7-3.2C18,64.8,17.3,63.8,16.3,62.9z"/>
	<linearGradient id="SVGID_6_" gradientUnits="userSpaceOnUse" x1="-9.5081" y1="67.1133" x2="100.0962" y2="66.1004">
		<stop  offset="0.3895" style="stop-color:#16BBB2"/>
		<stop  offset="0.4332" style="stop-color:#1EB4B2"/>
		<stop  offset="0.6868" style="stop-color:#4A90B1"/>
		<stop  offset="0.8842" style="stop-color:#6579B0"/>
		<stop  offset="1" style="stop-color:#6F71B0"/>
	</linearGradient>
	<path class="st5" d="M152.1,74.2l-7.4-7.3l5.9-5.5c0.3-0.3,0.6-0.7,0.6-1.2c0-1-0.8-1.8-1.9-1.8c-0.5,0-1.1,0.2-1.4,0.5l-8.1,7.8
		V56.1c0-1-0.9-1.9-2-1.9c-1.1,0-2,0.9-2,1.9v19.1c0,1,0.9,1.9,2,1.9c1.1,0,2-0.9,2-1.9v-3.8l2.3-2.2l7.4,7.3
		c0.3,0.3,0.8,0.5,1.4,0.5c1,0,1.8-0.8,1.8-1.7C152.6,75,152.4,74.5,152.1,74.2z"/>
	<linearGradient id="SVGID_7_" gradientUnits="userSpaceOnUse" x1="-7.7433" y1="68.5035" x2="105.3521" y2="67.4583">
		<stop  offset="0.3895" style="stop-color:#16BBB2"/>
		<stop  offset="0.4332" style="stop-color:#1EB4B2"/>
		<stop  offset="0.6868" style="stop-color:#4A90B1"/>
		<stop  offset="0.8842" style="stop-color:#6579B0"/>
		<stop  offset="1" style="stop-color:#6F71B0"/>
	</linearGradient>
	<path class="st6" d="M61,58.6h-2.7h-0.7c-2.7,0-4.1,1.5-4.1,4.3v12.5c0,1,0.9,1.9,2,1.9c1.1,0,2-0.8,2-1.9V62.9c0-0.9,0.4-1,0.9-1
		H61c0.7,0,1.3-0.4,1.6-0.9c0.1-0.2,0.2-0.5,0.2-0.7C62.8,59.3,62.1,58.6,61,58.6z"/>
	<linearGradient id="SVGID_8_" gradientUnits="userSpaceOnUse" x1="-13.2117" y1="69.2086" x2="99.883" y2="68.1634">
		<stop  offset="0.3895" style="stop-color:#16BBB2"/>
		<stop  offset="0.4332" style="stop-color:#1EB4B2"/>
		<stop  offset="0.6868" style="stop-color:#4A90B1"/>
		<stop  offset="0.8842" style="stop-color:#6579B0"/>
		<stop  offset="1" style="stop-color:#6F71B0"/>
	</linearGradient>
	<path class="st7" d="M131.9,58.6h-2.7h-0.7c-2.7,0-4.1,1.5-4.1,4.3v12.5c0,1,0.9,1.9,2,1.9c1.1,0,2-0.8,2-1.9V62.9
		c0-0.9,0.4-1,0.9-1h2.7c0.7,0,1.3-0.4,1.6-0.9c0.1-0.2,0.2-0.5,0.2-0.7C133.6,59.3,132.9,58.6,131.9,58.6z"/>
	<linearGradient id="SVGID_9_" gradientUnits="userSpaceOnUse" x1="-5.7742" y1="68.4029" x2="102.3515" y2="67.4036">
		<stop  offset="0.3895" style="stop-color:#16BBB2"/>
		<stop  offset="0.4332" style="stop-color:#1EB4B2"/>
		<stop  offset="0.6868" style="stop-color:#4A90B1"/>
		<stop  offset="0.8842" style="stop-color:#6579B0"/>
		<stop  offset="1" style="stop-color:#6F71B0"/>
	</linearGradient>
	<path class="st8" d="M99.7,58c-0.2-0.1-0.4-0.1-0.6-0.1c-0.9,0-1.8,0.7-2.1,1.7l-2.6,11.1l-4.7-9.4c-0.2-0.4-0.6-0.6-0.9-0.6
		c-0.4,0-0.7,0.2-0.9,0.5L83,69.9l-2.5-10.3c-0.3-1-1.1-1.7-2.1-1.7c-0.2,0-0.4,0-0.6,0.1c-1.1,0.3-1.7,1.5-1.4,2.7l3.6,14.8
		c0.3,1,1.1,1.6,2,1.6c0.5,0,1.1-0.2,1.5-0.6l5.2-10l5.2,10c0.4,0.4,1,0.6,1.5,0.6c0.9,0,1.8-0.6,2-1.6l3.6-14.8
		C101.4,59.6,100.8,58.4,99.7,58z"/>
	<linearGradient id="SVGID_10_" gradientUnits="userSpaceOnUse" x1="95.3153" y1="-2.712" x2="70.4317" y2="34.7296">
		<stop  offset="0.3895" style="stop-color:#16BBB2"/>
		<stop  offset="0.4332" style="stop-color:#1EB4B2"/>
		<stop  offset="0.6868" style="stop-color:#4A90B1"/>
		<stop  offset="0.8842" style="stop-color:#6579B0"/>
		<stop  offset="1" style="stop-color:#6F71B0"/>
	</linearGradient>
	<path class="st9" d="M60.1,20.1c0.7,0.6,1.5,0.9,2.4,0.9c0,0,0,0,0,0c0.9,0,1.9-0.3,2.5-1c0.1-0.1,0.2-0.2,0.2-0.2L76.7,8.9
		l8.1,7.7c1.5,1.4,2.7,3,3.4,4.6c0.7,1.6,1.1,3.1,1.1,4.6c0,1.5-0.3,3-1,4.5c-0.7,1.5-1.7,2.9-3,4.1c-1.3,1.2-2.8,2.2-4.3,2.8
		C79.5,37.7,78,38,76.3,38c0,0,0,0,0,0c-1.6,0-3.2-0.3-4.9-1c0,0,0,0,0,0l0,0c-0.7-0.3-1.4-0.7-2.1-1.1l7.2-6.8l2.3,2.2
		c0.1,0.1,0.3,0.2,0.5,0.2c0.4,0,0.7-0.3,0.7-0.7c0-2.5,0-7.2,0-9c0-0.4-0.3-0.7-0.7-0.7h-9.5c-0.6,0-1,0.7-0.5,1.1l2.3,2.2
		l-9.9,9.4c-0.7,0.6-1,1.5-1,2.3c0,0,0,0,0,0c0,0.8,0.3,1.7,1,2.3c2.1,2,4.5,3.6,6.9,4.6v0c2.5,1,5.1,1.6,7.7,1.6c0,0,0,0,0,0
		c2.5,0,5-0.5,7.4-1.4c2.4-0.9,4.6-2.4,6.5-4.2c1.9-1.8,3.4-3.9,4.4-6.1c1-2.3,1.6-4.7,1.6-7.1c0-2.4-0.6-4.8-1.6-7.2
		c-1.1-2.4-2.7-4.6-4.9-6.6l-10.6-10c-0.7-0.6-1.6-1-2.5-1s-1.8,0.3-2.5,1L60.4,15.1c-0.1,0.1-0.3,0.2-0.4,0.4
		C58.7,16.8,58.7,18.9,60.1,20.1z"/>
</g>
</svg>
